PathFileType	4	(X/Y/Z)	/Users/itak/Documents/Research/Walk-IL/dataset/trc/00218_00009.trc
DataRate	CameraRate	NumFrames	NumMarkers	Units	OrigDataRate	OrigDataStartFrame	OrigNumFrames
100.000000	100.000000	4	53	mm	100.000000	0	510
Frame#	Time	RPSI			LPSI			L3			STRN			T10			C7			CLAV			RBAK			LBAK			LSHO			LUPA			LAEL			LAOL			LWTS			LWPS			LFRA			LIFD			LHPS			LHTS			RSHO			RUPA			RAEL			RAOL			RWTS			RWPS			RFRA			RIFD			RHTS			RHPS			RBHD			LFHD			RFHD			LBHD			LHIP			RHIP			RASI			LASI			LKNE			LTHI			LANK			LTIP			LTOE			LMT1			LMT5			LHEE			RKNE			RANK			RTIP			RTOE			RMT1			RMT5			RHEE			RTHI			
		X1	Y1	Z1	X2	Y2	Z2	X3	Y3	Z3	X4	Y4	Z4	X5	Y5	Z5	X6	Y6	Z6	X7	Y7	Z7	X8	Y8	Z8	X9	Y9	Z9	X10	Y10	Z10	X11	Y11	Z11	X12	Y12	Z12	X13	Y13	Z13	X14	Y14	Z14	X15	Y15	Z15	X16	Y16	Z16	X17	Y17	Z17	X18	Y18	Z18	X19	Y19	Z19	X20	Y20	Z20	X21	Y21	Z21	X22	Y22	Z22	X23	Y23	Z23	X24	Y24	Z24	X25	Y25	Z25	X26	Y26	Z26	X27	Y27	Z27	X28	Y28	Z28	X29	Y29	Z29	X30	Y30	Z30	X31	Y31	Z31	X32	Y32	Z32	X33	Y33	Z33	X34	Y34	Z34	X35	Y35	Z35	X36	Y36	Z36	X37	Y37	Z37	X38	Y38	Z38	X39	Y39	Z39	X40	Y40	Z40	X41	Y41	Z41	X42	Y42	Z42	X43	Y43	Z43	X44	Y44	Z44	X45	Y45	Z45	X46	Y46	Z46	X47	Y47	Z47	X48	Y48	Z48	X49	Y49	Z49	X50	Y50	Z50	X51	Y51	Z51	X52	Y52	Z52	X53	Y53	Z53	

1	0	-1144.965576171875	1046.064086914062	-233.7207794189453	-1150.944458007812	1050.286376953125	-113.591552734375	-1138.3701171875	1130.662475585938	-159.2918853759766	-1374.790893554688	1319.275390625	-159.3115844726562	-1122.044067382812	1256.662231445312	-166.34228515625	-1180.508422851562	1519.674072265625	-163.4794616699219	-1346.5595703125	1436.408325195312	-160.6989440917969	-1104.370239257812	1381.030639648438	-238.0491943359375	-1160.852294921875	1479.975952148438	-51.1914176940918	-1250.322875976562	1481.888671875	5.916252613067627	-1226.2197265625	1361.743408203125	84.95097351074219	-1254.43408203125	1150.452392578125	108.4881362915039	-1179.797119140625	1131.952758789062	65.42488098144531	-1348.923461914062	919.76416015625	42.97992324829102	-1328.17578125	901.3054809570312	123.1254043579102	-1281.693115234375	1043.891967773438	119.3384170532227	-1358.565063476562	724.3526000976562	48.01491546630859	-1346.795043945312	813.0360717773438	116.2509994506836	-1386.72998046875	819.1124877929688	61.8975830078125	-1241.3681640625	1477.614624023438	-330.6200866699219	-1224.208129882812	1412.017822265625	-397.5116882324219	-1219.2294921875	1130.629028320312	-436.9517517089844	-1175.752319335938	1121.948486328125	-352.6737976074219	-1356.455322265625	920.1275024414062	-382.283447265625	-1310.9169921875	905.3361206054688	-451.479736328125	-1248.6513671875	1062.95361328125	-446.5380554199219	-1371.531982421875	726.7982788085938	-375.942626953125	-1398.49853515625	799.3856201171875	-394.2371826171875	-1351.636962890625	799.0364379882812	-449.3586730957031	-1216.502319335938	1669.013549804688	-222.6879577636719	-1402.67236328125	1731.817749023438	-106.8155059814453	-1413.763061523438	1728.554321289062	-206.3572998046875	-1245.684692382812	1682.767944335938	-86.54312896728516	-1256.760498046875	990.7357788085938	22.93687629699707	-1241.644165039062	1009.611267089844	-342.3439331054688	-1336.358032226562	1055.258178710938	-309.0279541015625	-1354.255981445312	1036.620483398438	-28.53199005126953	-1286.7451171875	507.5520935058594	-32.63545989990234	-1289.854370117188	650.9054565429688	2.66019868850708	-1175.755615234375	42.01023483276367	-50.38561630249023	-1225.377563476562	286.187744140625	-30.2248706817627	-1391.210205078125	45.72188568115234	-107.0117111206055	-1322.2470703125	40.63021850585938	-150.3565063476562	-1304.362426757812	40.29974746704102	-33.19111633300781	-1113.555297851562	49.78303909301758	-102.4458312988281	-1271.955078125	517.847900390625	-304.9446411132812	-1173.77978515625	40.18436050415039	-275.772705078125	-1270.71630859375	401.2147827148438	-286.8430480957031	-1388.56494140625	47.33547973632812	-248.6220703125	-1335.587036132812	45.83374786376953	-201.6708526611328	-1281.109008789062	39.04494857788086	-310.0709228515625	-1115.682006835938	41.83381271362305	-212.2415771484375	nan	nan	nan	
2	0.01	-1144.934204101562	1046.077026367188	-233.7234954833984	-1150.9267578125	1050.288452148438	-113.5936889648438	-1138.357421875	1130.656860351562	-159.2881164550781	-1374.783935546875	1319.26611328125	-159.3299102783203	-1122.0458984375	1256.661376953125	-166.3431549072266	-1180.506469726562	1519.674194335938	-163.4787292480469	-1346.553466796875	1436.4013671875	-160.7063140869141	-1104.365478515625	1381.030029296875	-238.0499114990234	-1160.84716796875	1479.975952148438	-51.19532012939453	-1250.332153320312	1481.885986328125	5.906540393829346	-1226.22021484375	1361.74365234375	84.94528198242188	-1254.424194335938	1150.454711914062	108.4874572753906	-1179.782836914062	1131.957763671875	65.43012237548828	-1348.86328125	919.726318359375	42.98966979980469	-1328.120239257812	901.2847900390625	123.1211776733398	-1281.661865234375	1043.88037109375	119.3547210693359	-1358.543090820312	724.4238891601562	48.01556396484375	-1346.70361328125	812.9939575195312	116.2900543212891	-1386.644897460938	819.0687866210938	61.93238830566406	-1241.349609375	1477.600463867188	-330.6255798339844	-1224.177978515625	1412.000854492188	-397.5075988769531	-1219.178833007812	1130.610595703125	-436.9320678710938	-1175.71533203125	1121.940185546875	-352.6589965820312	-1356.434204101562	920.1121215820312	-382.2767944335938	-1310.856567382812	905.310546875	-451.4442138671875	-1248.593383789062	1062.928833007812	-446.5096130371094	-1371.526245117188	726.7938232421875	-375.9141235351562	-1398.475830078125	799.3754272460938	-394.2142333984375	-1351.617065429688	799.0188598632812	-449.3360900878906	-1216.492919921875	1669.009033203125	-222.7060852050781	-1402.66552734375	1731.818115234375	-106.8402481079102	-1413.73486328125	1728.55419921875	-206.3793029785156	-1245.672119140625	1682.766845703125	-86.55906677246094	-1256.757690429688	990.7351684570312	22.92800140380859	-1241.631591796875	1009.616088867188	-342.3526306152344	-1336.329711914062	1055.25830078125	-309.0326232910156	-1354.251220703125	1036.614624023438	-28.53647804260254	-1286.725830078125	507.5523986816406	-32.63460159301758	-1289.848754882812	650.9078369140625	2.64625883102417	-1175.759033203125	42.01023864746094	-50.38597106933594	-1225.37841796875	286.1905517578125	-30.22786140441895	-1391.200927734375	45.72587203979492	-107.0411911010742	-1322.246704101562	40.62377548217773	-150.3561706542969	-1304.36328125	40.29454803466797	-33.18502044677734	-1113.556762695312	49.7580680847168	-102.4454727172852	-1271.913696289062	517.8434448242188	-304.93603515625	-1173.778198242188	40.1783332824707	-275.77197265625	-1270.6875	401.2224731445312	-286.85595703125	-1388.570434570312	47.33603286743164	-248.6264953613281	-1335.5888671875	45.83335494995117	-201.668701171875	-1281.108276367188	39.04634475708008	-310.0711059570312	-1115.684326171875	41.8346061706543	-212.2451477050781	nan	nan	nan	
3	0.02	-1144.898071289062	1046.092529296875	-233.7281799316406	-1150.908447265625	1050.290771484375	-113.5994262695312	-1138.338623046875	1130.64990234375	-159.2853393554688	-1374.775268554688	1319.2548828125	-159.3512115478516	-1122.048828125	1256.661010742188	-166.3451385498047	-1180.5048828125	1519.6748046875	-163.4797821044922	-1346.547119140625	1436.39208984375	-160.7181396484375	-1104.359741210938	1381.029296875	-238.0507202148438	-1160.843017578125	1479.976806640625	-51.20062255859375	-1250.34423828125	1481.882934570312	5.894842624664307	-1226.222412109375	1361.743896484375	84.9385986328125	-1254.412231445312	1150.456909179688	108.4843063354492	-1179.766479492188	1131.96337890625	65.43428802490234	-1348.79541015625	919.6849365234375	43.00093078613281	-1328.0615234375	901.2575073242188	123.1173477172852	-1281.623046875	1043.863891601562	119.3708648681641	-1358.49169921875	724.4815673828125	48.04120254516602	-1346.585815429688	812.9414672851562	116.3361129760742	-1386.5400390625	819.0125122070312	61.96716690063477	-1241.326293945312	1477.583251953125	-330.6339111328125	-1224.142578125	1411.980102539062	-397.5044860839844	-1219.119262695312	1130.58642578125	-436.9085998535156	-1175.674560546875	1121.928588867188	-352.6407470703125	-1356.41015625	920.0934448242188	-382.2673034667969	-1310.78466796875	905.27880859375	-451.4013671875	-1248.526000976562	1062.8974609375	-446.4748229980469	-1371.518920898438	726.7872314453125	-375.8802185058594	-1398.4453125	799.3613891601562	-394.1842041015625	-1351.593994140625	798.9959106445312	-449.308349609375	-1216.482543945312	1669.003784179688	-222.7300720214844	-1402.657836914062	1731.819458007812	-106.8729019165039	-1413.701904296875	1728.554809570312	-206.4055023193359	-1245.65966796875	1682.766967773438	-86.57956695556641	-1256.752807617188	990.7333374023438	22.91678047180176	-1241.615600585938	1009.622131347656	-342.36279296875	-1336.298095703125	1055.258422851562	-309.0402526855469	-1354.24609375	1036.608642578125	-28.54422950744629	-1286.704345703125	507.5537719726562	-32.6351432800293	-1289.842407226562	650.9110717773438	2.628563642501831	-1175.765625	42.01189041137695	-50.38647842407227	-1225.370849609375	286.190673828125	-30.22655296325684	-1391.193115234375	45.72930908203125	-107.060676574707	-1322.246459960938	40.61832427978516	-150.356689453125	-1304.364379882812	40.28969955444336	-33.17903137207031	-1113.558349609375	49.73740768432617	-102.4453277587891	-1271.8642578125	517.8385620117188	-304.92578125	-1173.779052734375	40.17267990112305	-275.7723083496094	-1270.653198242188	401.2318115234375	-286.8704833984375	-1388.57568359375	47.33591079711914	-248.6303253173828	-1335.590698242188	45.83393859863281	-201.6674041748047	-1281.108154296875	39.04769515991211	-310.0714721679688	-1115.686279296875	41.83570098876953	-212.2472686767578	nan	nan	nan	
4	0.03	-1144.860717773438	1046.109375	-233.7347869873047	-1150.891723632812	1050.293090820312	-113.609001159668	-1138.314331054688	1130.641967773438	-159.2846221923828	-1374.765625	1319.242309570312	-159.3743286132812	-1122.053100585938	1256.661499023438	-166.3484191894531	-1180.504272460938	1519.676147460938	-163.4835205078125	-1346.541381835938	1436.380737304688	-160.7348175048828	-1104.353515625	1381.028686523438	-238.0515441894531	-1160.841064453125	1479.978637695312	-51.20760726928711	-1250.358642578125	1481.879516601562	5.881426811218262	-1226.226928710938	1361.744140625	84.93095397949219	-1254.39892578125	1150.458618164062	108.4777755737305	-1179.749267578125	1131.96923828125	65.43597412109375	-1348.725830078125	919.6441040039062	43.01249694824219	-1328.004028320312	901.2245483398438	123.1137924194336	-1281.5791015625	1043.843017578125	119.3836898803711	-1358.409301757812	724.5153198242188	48.09426498413086	-1346.446655273438	812.881591796875	116.3849639892578	-1386.421508789062	818.946533203125	61.99692916870117	-1241.29931640625	1477.56396484375	-330.6454467773438	-1224.1044921875	1411.956665039062	-397.5035400390625	-1219.05517578125	1130.5576171875	-436.8828430175781	-1175.634155273438	1121.913818359375	-352.619873046875	-1356.38525390625	920.0723266601562	-382.255126953125	-1310.706298828125	905.2424926757812	-451.35400390625	-1248.454345703125	1062.860961914062	-446.4356384277344	-1371.510131835938	726.7782592773438	-375.8433227539062	-1398.407836914062	799.3438720703125	-394.1482543945312	-1351.568603515625	798.9679565429688	-449.2765808105469	-1216.472045898438	1668.997924804688	-222.7594299316406	-1402.649536132812	1731.822021484375	-106.912712097168	-1413.6669921875	1728.556762695312	-206.4343719482422	-1245.649047851562	1682.768676757812	-86.60409545898438	-1256.745727539062	990.72998046875	22.90392112731934	-1241.596313476562	1009.628845214844	-342.3737182617188	-1336.265014648438	1055.258056640625	-309.0506896972656	-1354.2412109375	1036.603393554688	-28.55587768554688	-1286.682006835938	507.5561828613281	-32.63753128051758	-1289.835205078125	650.9151000976562	2.608227968215942	-1175.775512695312	42.01540756225586	-50.38737487792969	-1225.357543945312	286.1898803710938	-30.22367668151855	-1391.186889648438	45.73189163208008	-107.0680694580078	-1322.246337890625	40.61477279663086	-150.3581390380859	-1304.365356445312	40.28598785400391	-33.17418670654297	-1113.559692382812	49.72386932373047	-102.4453430175781	-1271.810546875	517.8335571289062	-304.9150085449219	-1173.782104492188	40.16775894165039	-275.7734985351562	-1270.615844726562	401.2424011230469	-286.8854064941406	-1388.579711914062	47.33489990234375	-248.6330871582031	-1335.592163085938	45.83533477783203	-201.667236328125	-1281.109008789062	39.04922103881836	-310.0721740722656	-1115.687866210938	41.83675765991211	-212.2475433349609	nan	nan	nan	
